<?xml version="1.0" standalone="no"?>
<!DOCTYPE svg PUBLIC "-//W3C//DTD SVG 20010904//EN"
 "http://www.w3.org/TR/2001/REC-SVG-20010904/DTD/svg10.dtd">
<svg version="1.0" xmlns="http://www.w3.org/2000/svg"
 width="64.000000pt" height="64.000000pt" viewBox="0 0 64.000000 64.000000"
 preserveAspectRatio="xMidYMid meet">
<metadata>
Created by potrace 1.16, written by Peter Selinger 2001-2019
</metadata>
<g transform="translate(0.000000,64.000000) scale(0.100000,-0.100000)"
fill="#000000" stroke="none">
<path d="M225 531 c-22 -10 -48 -27 -57 -37 -49 -56 -62 -162 -28 -229 20 -39
20 -39 0 -60 -11 -12 -20 -24 -20 -28 0 -15 30 -6 43 13 14 20 15 20 22 3 5
-10 11 -40 14 -68 5 -39 11 -52 29 -60 12 -5 25 -18 28 -27 8 -27 94 -26 101
1 3 11 15 21 27 23 18 3 21 11 24 51 2 33 7 47 18 47 7 0 14 8 14 19 0 20 36
36 46 20 8 -14 19 -11 48 16 23 21 26 30 20 60 -5 31 -4 35 15 35 18 0 21 6
21 45 0 39 -3 45 -21 45 -19 0 -20 4 -15 35 6 30 3 39 -20 60 -29 27 -40 30
-48 16 -10 -16 -46 0 -46 20 0 16 -8 19 -41 19 -32 0 -42 -4 -46 -20 -5 -18
-9 -21 -30 -20 -5 1 -7 10 -5 20 4 26 -38 27 -93 1z m36 -35 c-18 -19 -22 -31
-16 -56 6 -26 4 -32 -14 -37 -39 -10 -40 -86 -1 -96 18 -5 20 -11 15 -39 -5
-28 -2 -37 20 -58 21 -20 29 -22 44 -13 20 13 34 6 44 -19 6 -16 -1 -18 -58
-18 -57 0 -64 2 -71 23 -4 12 -20 41 -36 65 -66 96 -39 216 57 258 41 18 42
17 16 -10z m153 6 c8 -23 58 -42 79 -31 17 10 32 -5 22 -21 -10 -16 15 -80 31
-80 8 0 14 -7 14 -15 0 -8 -6 -15 -14 -15 -16 0 -36 -53 -33 -85 1 -13 -3 -19
-13 -17 -31 7 -79 -9 -85 -28 -7 -23 -35 -27 -35 -5 0 18 -44 37 -74 33 -16
-2 -21 2 -21 22 -1 46 -16 80 -36 80 -10 0 -19 7 -19 15 0 8 8 15 18 15 19 0
48 62 37 80 -9 15 5 32 18 22 16 -13 77 14 77 33 0 21 27 19 34 -3z"/>
<path d="M338 453 c-75 -48 -68 -170 13 -203 112 -47 212 91 131 181 -35 39
-102 49 -144 22z"/>
</g>
</svg>
